<svg xmlns="http://www.w3.org/2000/svg" width="900" height="420" viewBox="0 0 900 420"><rect width="900" height="420" rx="18" fill="#0d1117" stroke="#30363d"/><text x="40" y="48" fill="#f0f6fc" font-family="Arial,sans-serif" font-size="24" font-weight="700">GitHub Statistics</text><text x="40" y="74" fill="#8b949e" font-family="Arial,sans-serif" font-size="13">Auto-generated from the GitHub API</text><rect x="40" y="105" width="180" height="90" rx="12" fill="#161b22" stroke="#30363d"/><rect x="240" y="105" width="180" height="90" rx="12" fill="#161b22" stroke="#30363d"/><rect x="440" y="105" width="180" height="90" rx="12" fill="#161b22" stroke="#30363d"/><rect x="640" y="105" width="180" height="90" rx="12" fill="#161b22" stroke="#30363d"/><text x="60" y="135" fill="#8b949e" font-family="Arial,sans-serif" font-size="13">Public Repositories</text><text x="60" y="176" fill="#f0f6fc" font-family="Arial,sans-serif" font-size="28" font-weight="700">3</text><text x="260" y="135" fill="#8b949e" font-family="Arial,sans-serif" font-size="13">Followers</text><text x="260" y="176" fill="#f0f6fc" font-family="Arial,sans-serif" font-size="28" font-weight="700">0</text><text x="460" y="135" fill="#8b949e" font-family="Arial,sans-serif" font-size="13">Stars Received</text><text x="460" y="176" fill="#f0f6fc" font-family="Arial,sans-serif" font-size="28" font-weight="700">1</text><text x="660" y="135" fill="#8b949e" font-family="Arial,sans-serif" font-size="13">Total Forks</text><text x="660" y="176" fill="#f0f6fc" font-family="Arial,sans-serif" font-size="28" font-weight="700">0</text><text x="40" y="238" fill="#f0f6fc" font-family="Arial,sans-serif" font-size="19" font-weight="700">Top Languages</text><text x="40" y="273" fill="#c9d1d9" font-family="Arial,sans-serif" font-size="14">Python</text><rect x="170" y="261" width="540" height="14" rx="7" fill="#21262d"/><rect x="170" y="261" width="540" height="14" rx="7" fill="#00ADB5"/><text x="735" y="273" fill="#c9d1d9" font-family="Arial,sans-serif" font-size="14">100.0%</text><line x1="40" y1="395" x2="860" y2="395" stroke="#30363d"/><text x="40" y="414" fill="#6e7681" font-family="Arial,sans-serif" font-size="11">Ravi Ranjan Roy · raviranjanroy01</text></svg>