<svg xmlns="http://www.w3.org/2000/svg" width="900" height="420" viewBox="0 0 900 420"><rect width="900" height="420" rx="18" fill="#0d1117" stroke="#30363d"/><text x="40" y="48" fill="#f0f6fc" font-family="Arial" font-size="24" font-weight="700">GitHub Statistics</text><text x="40" y="72" fill="#8b949e" font-family="Arial" font-size="13">Automatically generated from the GitHub API</text><rect x="40" y="100" width="180" height="90" rx="12" fill="#161b22" stroke="#30363d"/><text x="58" y="128" fill="#8b949e" font-family="Arial" font-size="13">Repositories</text><text x="58" y="168" fill="#f0f6fc" font-family="Arial" font-size="28" font-weight="700">3</text><rect x="260" y="100" width="180" height="90" rx="12" fill="#161b22" stroke="#30363d"/><text x="278" y="128" fill="#8b949e" font-family="Arial" font-size="13">Followers</text><text x="278" y="168" fill="#f0f6fc" font-family="Arial" font-size="28" font-weight="700">0</text><rect x="480" y="100" width="180" height="90" rx="12" fill="#161b22" stroke="#30363d"/><text x="498" y="128" fill="#8b949e" font-family="Arial" font-size="13">Stars</text><text x="498" y="168" fill="#f0f6fc" font-family="Arial" font-size="28" font-weight="700">1</text><rect x="700" y="100" width="180" height="90" rx="12" fill="#161b22" stroke="#30363d"/><text x="718" y="128" fill="#8b949e" font-family="Arial" font-size="13">Forks</text><text x="718" y="168" fill="#f0f6fc" font-family="Arial" font-size="28" font-weight="700">0</text><text x="40" y="235" fill="#f0f6fc" font-family="Arial" font-size="19" font-weight="700">Top Languages</text><text x="40" y="270" fill="#c9d1d9" font-family="Arial" font-size="14">Python</text><rect x="170" y="258" width="540" height="14" rx="7" fill="#21262d"/><rect x="170" y="258" width="483.6" height="14" rx="7" fill="#00ADB5"/><text x="735" y="270" fill="#c9d1d9" font-family="Arial" font-size="14">87.9%</text><text x="40" y="300" fill="#c9d1d9" font-family="Arial" font-size="14">JavaScript</text><rect x="170" y="288" width="540" height="14" rx="7" fill="#21262d"/><rect x="170" y="288" width="37.1" height="14" rx="7" fill="#3776AB"/><text x="735" y="300" fill="#c9d1d9" font-family="Arial" font-size="14">6.7%</text><text x="40" y="330" fill="#c9d1d9" font-family="Arial" font-size="14">CSS</text><rect x="170" y="318" width="540" height="14" rx="7" fill="#21262d"/><rect x="170" y="318" width="20.2" height="14" rx="7" fill="#F7DF1E"/><text x="735" y="330" fill="#c9d1d9" font-family="Arial" font-size="14">3.7%</text><text x="40" y="360" fill="#c9d1d9" font-family="Arial" font-size="14">HTML</text><rect x="170" y="348" width="540" height="14" rx="7" fill="#21262d"/><rect x="170" y="348" width="12.0" height="14" rx="7" fill="#A855F7"/><text x="735" y="360" fill="#c9d1d9" font-family="Arial" font-size="14">1.4%</text><text x="40" y="390" fill="#c9d1d9" font-family="Arial" font-size="14">VBScript</text><rect x="170" y="378" width="540" height="14" rx="7" fill="#21262d"/><rect x="170" y="378" width="12.0" height="14" rx="7" fill="#22C55E"/><text x="735" y="390" fill="#c9d1d9" font-family="Arial" font-size="14">0.2%</text></svg>
